<?xml version="1.0" encoding="UTF-8"?>
<svg width="60px" height="60px" viewBox="0 0 60 60" version="1.1" xmlns="http://www.w3.org/2000/svg" xmlns:xlink="http://www.w3.org/1999/xlink">
    <!-- Generator: Sketch 49 (51002) - http://www.bohemiancoding.com/sketch -->
    <title>水盆</title>
    <desc>Created with Sketch.</desc>
    <defs></defs>
    <g id="水盆" stroke="none" stroke-width="1" fill="none" fill-rule="evenodd">
        <g id="Group" transform="translate(0.000000, 11.000000)">
            <g id="Rectangle">
                <g id="path-1-link" fill="#FFFFFF">
                    <rect id="path-1" x="0" y="0" width="60" height="38" rx="3"></rect>
                </g>
                <path d="M4.49536133,0.523193359 L55.5200195,0.523193359 C57.1768738,0.523193359 58.5200195,1.86633911 58.5200195,3.52319336 L58.5200195,33.4980469 C58.5200195,35.1549011 57.1768738,36.4980469 55.5200195,36.4980469 L4.49536133,36.4980469 C2.83850708,36.4980469 1.49536133,35.1549011 1.49536133,33.4980469 L1.49536133,3.52319336 C1.49536133,1.86633911 2.83850708,0.523193359 4.49536133,0.523193359 Z" id="Rectangle-path" stroke="#666666"></path>
            </g>
            <g id="Rectangle-2" transform="translate(5.000000, 6.000000)">
                <g id="path-2-link" fill="#FFFFFF">
                    <rect id="path-2" x="0" y="0" width="28" height="26" rx="8"></rect>
                </g>
                <path d="M7.5300293,1.48950195 L20.5300293,1.48950195 C23.8437378,1.48950195 26.5300293,4.17579345 26.5300293,7.48950195 L26.5300293,18.4953613 C26.5300293,21.8090698 23.8437378,24.4953613 20.5300293,24.4953613 L7.5300293,24.4953613 C4.2163208,24.4953613 1.5300293,21.8090698 1.5300293,18.4953613 L1.5300293,7.48950195 C1.5300293,4.17579345 4.2163208,1.48950195 7.5300293,1.48950195 Z" id="Rectangle-path" stroke="#666666"></path>
            </g>
            <g id="Rectangle-2-Copy" transform="translate(36.000000, 6.000000)">
                <g id="path-3-link" fill="#FFFFFF">
                    <rect id="path-3" x="0" y="0" width="18" height="26" rx="8"></rect>
                </g>
                <path d="M6.47167969,1.4855957 L12.5112305,1.4855957 C15.2726542,1.4855957 17.5112305,3.72417195 17.5112305,6.4855957 L17.5112305,19.5476074 C17.5112305,22.3090312 15.2726542,24.5476074 12.5112305,24.5476074 L6.47167969,24.5476074 C3.71025594,24.5476074 1.47167969,22.3090312 1.47167969,19.5476074 L1.47167969,6.4855957 C1.47167969,3.72417195 3.71025594,1.4855957 6.47167969,1.4855957 Z" id="Rectangle-path" stroke="#666666"></path>
            </g>
            <g id="Oval" transform="translate(10.000000, 16.000000)">
                <g id="path-4-link" fill="#FFFFFF">
                    <circle id="path-4" cx="3" cy="3" r="3"></circle>
                </g>
                <path d="M3,4.99414062 C4.15979797,4.99414062 4.98596191,4.15979797 4.98596191,3 C4.98596191,2.22680135 4.32397461,1.56420369 3,1.01220703 C1.66703288,1.56420369 1.00054932,2.22680135 1.00054932,3 C1.00054932,4.15979797 1.84020203,4.99414062 3,4.99414062 Z" stroke="#666666"></path>
            </g>
            <g id="Oval-Copy" transform="translate(42.000000, 16.000000)">
                <g id="path-4-link" fill="#FFFFFF">
                    <circle id="path-4" cx="3" cy="3" r="3"></circle>
                </g>
                <path d="M3,4.99414062 C4.15979797,4.99414062 4.98596191,4.15979797 4.98596191,3 C4.98596191,2.22680135 4.32397461,1.56420369 3,1.01220703 C1.66703288,1.56420369 1.00054932,2.22680135 1.00054932,3 C1.00054932,4.15979797 1.84020203,4.99414062 3,4.99414062 Z" id="Oval" stroke="#666666"></path>
            </g>
            <g id="Rectangle-3" transform="translate(28.231595, 10.492054) rotate(50.000000) translate(-28.231595, -10.492054) translate(24.231595, 0.492054)">
                <g id="path-6-link" fill="#FFFFFF">
                    <path d="M3.86184257,0.302630774 C5.88042006,0.302630774 7.51680046,2.15015697 7.51680046,4.42919613 C7.51680046,4.55860323 7.51140891,4.68793877 7.50064371,4.81677381 L7.268062,7.60025181 L6.4618916,17.2482915 C6.33534789,18.762734 5.20916177,19.9199272 3.86184257,19.9199272 C2.51452343,19.9199272 1.38833726,18.762734 1.26179354,17.2482915 L0.223041429,4.81677381 C0.0334513714,2.54780923 1.50890509,0.534925484 3.51855943,0.320872194 C3.63267051,0.308717935 3.74722486,0.302630774 3.86184257,0.302630774 Z" id="path-6"></path>
                </g>
                <path d="M3.86184257,1.27037271 C3.7741044,1.27037271 3.68641486,1.27503239 3.59906451,1.28433626 C2.06070446,1.44819077 0.931266971,2.98902284 1.07639526,4.72588103 L2.11514743,17.1573986 C2.20015863,18.1747908 2.9567228,18.9521853 3.86184257,18.9521853 C4.7669624,18.9521853 5.52352651,18.1747908 5.60853771,17.1573986 L6.64728989,4.72588103 C6.65553046,4.62725968 6.6596576,4.52825529 6.6596576,4.42919613 C6.6596576,2.68462613 5.40703314,1.27037271 3.86184257,1.27037271 Z" id="Shape" stroke="#666666"></path>
            </g>
        </g>
    </g>
</svg>