<?xml version="1.0" encoding="UTF-8"?>
<svg width="60px" height="60px" viewBox="0 0 60 60" version="1.1" xmlns="http://www.w3.org/2000/svg" xmlns:xlink="http://www.w3.org/1999/xlink">
    <!-- Generator: Sketch 49 (51002) - http://www.bohemiancoding.com/sketch -->
    <title>浴盆</title>
    <desc>Created with Sketch.</desc>
    <defs></defs>
    <g id="浴盆" stroke="none" stroke-width="1" fill="none" fill-rule="evenodd">
        <g id="Group" transform="translate(1.000000, 15.000000)">
            <g id="Group-18-Copy" transform="translate(1.000000, 0.000000)" stroke="#666666">
                <path d="M1.5,29.5 L56.5,29.5 L56.5,0.5 L1.5,0.5 L1.5,19.8668407 C1.5,23.6513155 1.5,23.6978989 1.5,29.5 Z" id="Rectangle-25"></path>
                <path d="M6.5,13.9842227 L6.5,17.2077741 C6.5,18.6999153 6.5,18.6999153 6.5,20.5314239 C6.5,23.2818747 8.59100472,25.5 11.1551724,25.5 L46.8448276,25.5 C49.4089953,25.5 51.5,23.2818747 51.5,20.5314239 L51.5,10.4355911 C51.5,7.48161093 49.2410934,4.5 46.8448276,4.5 L11.1551724,4.5 C8.7589066,4.5 6.5,7.48161093 6.5,10.4355911 L6.5,11.7901373 C6.5,13.2339361 6.5,13.2339361 6.5,13.9842227 Z" id="Rectangle-25"></path>
                <path d="M0.5,9.5 L0.5,20.5180664 L1.2,20.5180664 C2.28682894,20.5180664 3.5,19.0307354 3.5,17.9736842 L3.5,11.0263158 C3.5,10.2246567 2.49865615,9.5 1.2,9.5 L0.5,9.5 Z" id="Rectangle-26"></path>
            </g>
            <g id="Rectangle-3-Copy" transform="translate(6.750000, 15.022727) scale(1, -1) rotate(-270.000000) translate(-6.750000, -15.022727) translate(4.250000, 8.522727)">
                <g id="path-6-link" fill="#FFFFFF">
                    <path d="M2.41879296,0.189547133 C3.68309127,0.189547133 4.70800756,1.34671065 4.70800756,2.77414426 C4.70800756,2.85519598 4.70463067,2.93620289 4.69788809,3.0168963 L4.55221488,4.76027576 L4.0472851,10.8031452 C3.96802681,11.751688 3.26266118,12.4764743 2.41879296,12.4764743 C1.57492478,12.4764743 0.869559109,11.751688 0.790300817,10.8031452 L0.139697833,3.0168963 C0.0209516417,1.59577272 0.945074516,0.335040585 2.20378398,0.200972305 C2.27525532,0.193359712 2.3470043,0.189547133 2.41879296,0.189547133 Z" id="path-6"></path>
                </g>
                <path d="M2.41879296,0.588815862 C2.3638398,0.588815862 2.30891709,0.591734364 2.25420683,0.59756167 C1.29068375,0.700188886 0.716285245,1.87211862 0.807183636,2.95996731 L1.32478308,10.7462162 C1.37802826,11.3834407 1.8518881,11.8703473 2.41879296,11.8703473 C2.98569786,11.8703473 3.45955766,11.3834407 3.51280284,10.7462162 L3.96505939,2.86459489 C3.97022072,2.80282525 3.97280568,2.7408157 3.97280568,2.67877185 C3.97280568,1.58609301 3.38659421,0.588815862 2.41879296,0.588815862 Z" id="Shape" stroke="#666666"></path>
            </g>
            <g id="Oval-Copy-2" transform="translate(14.000000, 13.000000)">
                <g id="path-4-link" fill="#FFFFFF">
                    <circle id="path-4" cx="2.5" cy="2.5" r="2.5"></circle>
                </g>
                <path d="M2.5,4.16178385 C3.46649831,4.16178385 4.15496826,3.46649831 4.15496826,2.5 C4.15496826,1.85566779 3.60331217,1.30350308 2.5,0.843505859 C1.38919406,1.30350308 0.833791097,1.85566779 0.833791097,2.5 C0.833791097,3.46649831 1.53350169,4.16178385 2.5,4.16178385 Z" id="Oval" stroke="#666666"></path>
            </g>
        </g>
    </g>
</svg>