<?xml version="1.0" encoding="UTF-8"?>
<svg width="60px" height="60px" viewBox="0 0 60 60" version="1.1" xmlns="http://www.w3.org/2000/svg" xmlns:xlink="http://www.w3.org/1999/xlink">
    <!-- Generator: Sketch 49 (51002) - http://www.bohemiancoding.com/sketch -->
    <title>廚具</title>
    <desc>Created with Sketch.</desc>
    <defs></defs>
    <g id="廚具" stroke="none" stroke-width="1" fill="none" fill-rule="evenodd">
        <rect id="Rectangle-23" stroke="#666666" x="2.5" y="14.5" width="55" height="29"></rect>
        <g id="Group" transform="translate(6.000000, 18.000000)">
            <polyline id="Path" stroke="#979797" fill="#D8D8D8" points="10.9333333 5.8 10.9333333 11.4826172 10.9333333 15.3333333"></polyline>
            <path d="M11.000061,14.5266724 C13.0619241,14.5266724 14.491394,12.9583774 14.491394,10.9333333 C14.491394,8.90828925 13.0619241,7.48529053 11.000061,7.48529053 C8.93819797,7.48529053 7.4621582,8.90828925 7.4621582,10.9333333 C7.4621582,12.9583774 8.93819797,14.5266724 11.000061,14.5266724 Z" id="Oval-9" stroke="#666666"></path>
            <path d="M3.49963379,3.49688721 L3.49963379,18.5 L18.4793091,18.5 L18.4793091,3.49688721 L3.49963379,3.49688721 Z" id="Rectangle-24-Copy" stroke="#666666"></path>
            <path d="M10.9333333,18.0114746 C15.0570595,18.0114746 18.0031738,14.9834215 18.0031738,10.9333333 C18.0031738,6.88324517 15.0570595,3.99536133 10.9333333,3.99536133 C6.8096072,3.99536133 4.00109863,6.88324517 4.00109863,10.9333333 C4.00109863,14.9834215 6.8096072,18.0114746 10.9333333,18.0114746 Z" id="Oval-9" stroke="#666666"></path>
            <path d="M11,0 L11,3 M11,18 L11,22" id="Line-7" stroke="#666666" stroke-width="1.5" stroke-linecap="square"></path>
            <path d="M0,11 L4,11 M19,11 L22,11" id="Line-8" stroke="#666666" stroke-width="1.5" stroke-linecap="square"></path>
            <path d="M5.5615529,10.9333333 L16,10.9333333" id="Path" stroke="#666666" fill="#D8D8D8"></path>
        </g>
        <g id="Group-Copy" transform="translate(33.000000, 18.000000)">
            <polyline id="Path" stroke="#979797" fill="#D8D8D8" points="10.9333333 5.8 10.9333333 11.4826172 10.9333333 15.3333333"></polyline>
            <path d="M11.000061,14.5266724 C13.0619241,14.5266724 14.491394,12.9583774 14.491394,10.9333333 C14.491394,8.90828925 13.0619241,7.48529053 11.000061,7.48529053 C8.93819797,7.48529053 7.4621582,8.90828925 7.4621582,10.9333333 C7.4621582,12.9583774 8.93819797,14.5266724 11.000061,14.5266724 Z" id="Oval-9" stroke="#666666"></path>
            <path d="M3.49963379,3.49688721 L3.49963379,18.5 L18.4793091,18.5 L18.4793091,3.49688721 L3.49963379,3.49688721 Z" id="Rectangle-24-Copy" stroke="#666666"></path>
            <path d="M10.9333333,18.0114746 C15.0570595,18.0114746 18.0031738,14.9834215 18.0031738,10.9333333 C18.0031738,6.88324517 15.0570595,3.99536133 10.9333333,3.99536133 C6.8096072,3.99536133 4.00109863,6.88324517 4.00109863,10.9333333 C4.00109863,14.9834215 6.8096072,18.0114746 10.9333333,18.0114746 Z" id="Oval-9" stroke="#666666"></path>
            <path d="M11,0 L11,3 M11,18 L11,22" id="Line-7" stroke="#666666" stroke-width="1.5" stroke-linecap="square"></path>
            <path d="M0,11 L4,11 M19,11 L22,11" id="Line-8" stroke="#666666" stroke-width="1.5" stroke-linecap="square"></path>
            <path d="M5.5615529,10.9333333 L16,10.9333333" id="Path" stroke="#666666" fill="#D8D8D8"></path>
        </g>
    </g>
</svg>