<?xml version="1.0" encoding="UTF-8"?>
<svg width="60px" height="60px" viewBox="0 0 60 60" version="1.1" xmlns="http://www.w3.org/2000/svg" xmlns:xlink="http://www.w3.org/1999/xlink">
    <!-- Generator: Sketch 49 (51002) - http://www.bohemiancoding.com/sketch -->
    <title>植物</title>
    <desc>Created with Sketch.</desc>
    <defs></defs>
    <g id="植物" stroke="none" stroke-width="1" fill="none" fill-rule="evenodd">
        <path d="" id="Path-17" stroke="#979797"></path>
        <path d="M25.8666992,26.3881836 C23.405599,14.6118164 22.8516581,7.98686313 24.2048767,6.51332377 C24.92401,5.73024913 28.1324141,8.36468515 31.0070312,15.3843102 C31.6197674,16.8805714 32.1322592,19.5470411 32.5445068,23.3837193" id="Path-18" stroke="#666666"></path>
        <path d="" id="Path-19" stroke="#979797"></path>
        <path d="M30.6948242,14.3830566 C34.8718424,7.01186134 37.3527995,3.60105643 38.1376953,4.15064189 C38.6979302,4.54291937 39.7589309,7.96298829 39.9192871,13.7007733 C39.9424453,14.5294099 39.6040334,15.757777 39.4846191,17.2158203 C39.3829773,18.4568627 35.5958753,25.5304167 31.9709473,24.4334717" id="Path-20" stroke="#666666"></path>
        <path d="M39.942627,13.7775879 C48.123584,10.1321166 52.496224,8.68623445 53.0605469,9.43994141 C53.6248698,10.1936484 51.1748372,14.2504517 45.7104492,21.6103516" id="Path-21" stroke="#666666"></path>
        <path d="M33.4326172,24.7211914 C34.5359609,23.0036015 38.9831543,21.8173828 44.2844238,21.8173828 C51.9275852,21.8173828 55.9290628,21.3756089 57.1196289,23.3815918 C58.310195,25.3875747 51.4065616,28.0185744 48.7445313,29.3322106 C48.0763722,29.6619281 47.4355174,29.960134 46.822923,30.2291756 C42.1029201,32.3021251 39.0606218,32.6437068 38.1333008,32.3276367" id="Path-22" stroke="#666666"></path>
        <path d="M46.6880737,30.3734455 C47.2939331,30.3734455 56.6583008,38.1334702 56.6583008,39.4308434 C56.6583008,40.7282167 41.0217041,38.1617207 37.7136475,33.7417191" id="Path-23" stroke="#666666"></path>
        <path d="M44.5174805,37.4912109 C47.9958008,45.2336775 49.7349609,49.8057039 49.7349609,51.2072903 C49.7349609,52.6088768 46.5217122,50.7653659 40.0952148,45.6767578" id="Path-24" stroke="#666666"></path>
        <path d="" id="Path-25" stroke="#979797"></path>
        <path d="M37.6118164,33.9301758 C40.2766276,45.0288883 41.1430013,51.7161591 40.2109375,53.9919882 C38.8128418,57.4057318 28.5004883,40.1074219 30,37.6425781" id="Path-26" stroke="#666666"></path>
        <path d="M31.534668,44.0129395 C32.2198935,48.2822892 28.2914063,56.448341 26.1741211,56.448341 C25.210037,56.448341 22.8754883,52.9716797 22.1207275,49.074707 C21.5417379,46.085274 24.5633698,35.8567979 24.857666,34.6943359" id="Path-27" stroke="#666666"></path>
        <path d="M22.8422852,41.2895508 C21.9265137,43.3884277 18.4478628,45.5242247 15.6044922,47.2119141 C12.7611216,48.8996034 7.83970181,51.4472113 6.25073242,50.5615234 C5.1914195,49.9710649 6.17408551,47.6643429 9.19873047,43.6413574 L12.9431152,38.4812012" id="Path-28" stroke="#666666"></path>
        <path d="M26.0236816,35.6367188 C25.3548991,36.259191 23.0758464,37.0112637 19.1865234,37.8929369 C14.5719659,38.9390139 5.88476872,39.1037939 4.5640625,37.8929369 C3.24335628,36.6820798 11.1957219,34.1554576 13.8936523,33.0402982 C20.2191706,30.4257157 25.6198955,29.107666 24.3374023,29.107666" id="Path-29" stroke="#666666"></path>
        <path d="M15.3041016,32.683534 C6.64553126,28.0540918 2.7686758,25.230581 3.67353516,24.2130017 C5.0308242,22.6866327 6.07978516,22.6907983 15.1051025,22.6907983 C21.7448126,22.6907983 23.7120812,25.5904264 25.2353516,26.3322754" id="Path-30" stroke="#666666"></path>
        <path d="M18.0471191,23.1752033 C11.5393386,15.5409967 8.7236322,11.0200105 9.6,9.6122449 C10.9145517,7.50059644 19.473584,11.8032376 23.5803223,14.2868652" id="Path-31" stroke="#666666"></path>
        <circle id="Oval-8" stroke="#666666" stroke-width="1.5" cx="31" cy="31" r="7"></circle>
    </g>
</svg>