<?xml version="1.0" encoding="UTF-8"?>
<svg width="60px" height="60px" viewBox="0 0 60 60" version="1.1" xmlns="http://www.w3.org/2000/svg" xmlns:xlink="http://www.w3.org/1999/xlink">
    <!-- Generator: Sketch 49 (51002) - http://www.bohemiancoding.com/sketch -->
    <title>沙發</title>
    <desc>Created with Sketch.</desc>
    <defs></defs>
    <g id="沙發" stroke="none" stroke-width="1" fill="none" fill-rule="evenodd">
        <g id="Group-20" transform="translate(0.000000, 16.000000)" stroke="#666666">
            <path d="M53.1246843,5.02694286 L52.5,14 L52.5,23.9459459 C52.5,25.910287 54.0685169,27.5 56,27.5 C57.9314831,27.5 59.5,25.910287 59.5,23.9459459 L59.5,7.05405405 C59.5,5.08971303 57.9314831,3.5 56,3.5 C54.8382423,3.5 53.7738136,4.07893046 53.1246843,5.02694286 Z" id="Rectangle-19-Copy-3"></path>
            <path d="M49.6634303,3.12770938 C48.3710737,2.95743021 47.4854904,2.95743021 47.0066806,3.12770938 C45.7420475,3.57745096 45,4.82487764 45,7.21532602 C45,9.08122417 46.7502944,10.5933149 48.0470761,11.8817788 C49.355147,13.1814594 50.909065,15.1875639 53.0753574,14.9858926 C55.2416498,14.7842212 57,12.4690194 57,11.0483048 C57,10.1011618 54.5544768,7.46096331 49.6634303,3.12770938 Z" id="Path-9-Copy"></path>
            <path d="M3.5,27.5 L27,27.5 C28.9329966,27.5 30.5,25.9329966 30.5,24 L30.5,0.5 L7,0.5 C5.06700338,0.5 3.5,2.06700338 3.5,4 L3.5,27.5 Z" id="Rectangle-18-Copy-2"></path>
            <path d="M31.0546143,25.8916327 L54,27.5 C55.9329966,27.5 57.5,25.9329966 57.5,24 L57.5,0.5 L34,0.5 C32.0670034,0.5 30.5,2.06700338 30.5,4 L30.5,24 C30.5,24.6818968 30.6950272,25.3332542 31.0546143,25.8916327 Z" id="Rectangle-18-Copy-3" transform="translate(44.000000, 14.000000) rotate(270.000000) translate(-44.000000, -14.000000) "></path>
            <path d="M7.5,14.0117238 L7.09570312,5.39521748 C7.09570312,3.80008427 6.50972092,3.5 4,3.5 C2.06851685,3.5 0.5,5.08971303 0.5,7.05405405 L0.5,23.9459459 C0.5,25.910287 2.06851685,27.5 4,27.5 C5.93148315,27.5 7.5,25.910287 7.5,23.9459459 L7.5,14.0117238 Z" id="Rectangle-19-Copy-2"></path>
            <path d="M13.7124023,5.5 L45.5268555,5.5" id="Line-4-Copy" stroke-linecap="square"></path>
            <path d="M9.96645831,3 C13.161656,3.84493975 14.4585304,5.46489789 13.8570814,7.85987441 C12.954908,11.4523392 6.65330399,15 6.65330399,15 C6.65330399,15 2.03290549,12.285286 3.18427846,10.0725802 C3.95186045,8.59744301 6.21258706,6.23991628 9.96645831,3 Z" id="Path-11-Copy"></path>
        </g>
    </g>
</svg>