<?xml version="1.0" encoding="UTF-8"?>
<svg width="60px" height="60px" viewBox="0 0 60 60" version="1.1" xmlns="http://www.w3.org/2000/svg" xmlns:xlink="http://www.w3.org/1999/xlink">
    <!-- Generator: Sketch 49 (51002) - http://www.bohemiancoding.com/sketch -->
    <title>洗衣機</title>
    <desc>Created with Sketch.</desc>
    <defs></defs>
    <g id="洗衣機" stroke="none" stroke-width="1" fill="none" fill-rule="evenodd">
        <g id="Group-2-Copy" transform="translate(2.000000, 8.000000)">
            <g id="Group-13">
                <path d="M49.9746706,10.8779847 L6.7462719,10.9087841 C6.06053253,11.4537746 5.49438477,12.4114164 5.49438477,13.1355453 L5.49438477,32.0871582 C5.49438477,36.3153674 6.15380619,39.4182999 7.82162287,41.0505502 C8.9213086,42.126785 10.7329676,42.5932323 13.4663547,42.6915144 C14.1364678,42.7156091 14.6873501,42.7185569 15.854118,42.7124879 C16.2673551,42.7103384 16.4334044,42.7096774 16.6486486,42.7096774 L40.1081081,42.7096774 C40.1578149,42.7096788 40.1578149,42.7096788 40.2077883,42.7096828 C41.8077745,42.7098117 42.585427,42.6963381 43.5342373,42.6323169 C46.0099167,42.46527 47.7707504,41.9785963 48.8103818,41.0372537 C50.7538548,39.2775206 51.5006104,36.7917386 51.5006104,33.0162354 L51.5006104,13.0380249 C51.5006104,12.3769321 50.8350986,11.5010083 49.9746706,10.8779847 Z" id="Rectangle-20" stroke="#666666" opacity="0.783344656"></path>
                <path d="M35.4937439,8.51025391 C36.322171,8.51025391 36.9932861,7.63487874 36.9932861,6.80645161 C36.9932861,5.97802449 36.322171,5.38879395 35.4937439,5.38879395 C34.6653168,5.38879395 33.9942017,5.97802449 33.9942017,6.80645161 C33.9942017,7.63487874 34.6653168,8.51025391 35.4937439,8.51025391 Z" id="Oval-7" stroke="#979797" fill="#D8D8D8"></path>
                <path d="M40.9740906,8.40283203 C41.8025177,8.40283203 42.4924316,7.63487874 42.4924316,6.80645161 C42.4924316,5.97802449 41.8025177,5.33032227 40.9740906,5.33032227 C40.1456635,5.33032227 39.4557495,5.97802449 39.4557495,6.80645161 C39.4557495,7.63487874 40.1456635,8.40283203 40.9740906,8.40283203 Z" id="Oval-7-Copy" stroke="#979797" fill="#D8D8D8"></path>
                <path d="M0.5,0.5 L0.5,35 C0.5,41.3512746 5.64872538,46.5 12,46.5 L44,46.5 C50.3512746,46.5 55.5,41.3512746 55.5,35 L55.5,0.5 L0.5,0.5 Z" id="Rectangle-21" stroke="#666666"></path>
                <path d="M0.657287598,4.4777832 C0.657287598,4.4777832 18.9692993,4.4777832 55.5933228,4.4777832" id="Line-6" stroke="#666666" stroke-linecap="square"></path>
            </g>
            <path d="M1.12549464,10.4802246 L55.1501465,10.4802246" id="Line-6-Copy" stroke="#666666" stroke-linecap="square"></path>
        </g>
    </g>
</svg>