<?xml version="1.0" encoding="UTF-8"?>
<svg width="60px" height="60px" viewBox="0 0 60 60" version="1.1" xmlns="http://www.w3.org/2000/svg" xmlns:xlink="http://www.w3.org/1999/xlink">
    <!-- Generator: Sketch 49 (51002) - http://www.bohemiancoding.com/sketch -->
    <title>窗1</title>
    <desc>Created with Sketch.</desc>
    <defs>
        <rect id="path-1" x="4.00195312" y="-3.01867676" width="4" height="11"></rect>
        <polygon id="path-2" points="4.00195312 48.9813232 8.00195312 48.9813232 8.00195312 59.9813232 4.00195312 59.9813232"></polygon>
    </defs>
    <g id="窗1" stroke="none" stroke-width="1" fill="none" fill-rule="evenodd">
        <g id="Group-Copy-2" transform="translate(31.000000, 31.500000) rotate(90.000000) translate(-31.000000, -31.500000) translate(25.000000, 3.000000)">
            <polygon id="Rectangle-9" fill="#FFFFFF" transform="translate(6.001953, 28.481323) rotate(90.000000) translate(-6.001953, -28.481323) " points="-21.9980469 22.9813232 34.0019531 22.9813232 34.0019531 33.9813232 -21.2166931 33.9813232 -21.9980469 33.9813232"></polygon>
            <g id="Rectangle-8" transform="translate(6.001953, 2.481323) rotate(90.000000) translate(-6.001953, -2.481323) ">
                <use fill="#FFFFFF" fill-rule="evenodd" xlink:href="#path-1"></use>
                <rect stroke="#666666" stroke-width="1" x="4.50195312" y="-2.51867676" width="3" height="10"></rect>
            </g>
            <g id="Rectangle-8-Copy" transform="translate(6.001953, 54.481323) rotate(90.000000) translate(-6.001953, -54.481323) ">
                <use fill="#FFFFFF" fill-rule="evenodd" xlink:href="#path-2"></use>
                <path stroke="#666666" stroke-width="1" d="M4.50195312,49.4813232 L4.50195312,59.4813232 L7.50195312,59.4813232 L7.50195312,49.4813232 L4.50195312,49.4813232 Z"></path>
            </g>
            <path d="M-18.1412659,28.7923889 L30.0943909,28.7923889" id="Line-2" stroke="#666666" stroke-linecap="square" transform="translate(5.976562, 28.792389) rotate(90.000000) translate(-5.976562, -28.792389) "></path>
        </g>
    </g>
</svg>